<svg width="90" height="91" viewBox="0 0 90 91" fill="none" xmlns="http://www.w3.org/2000/svg"><mask id="mask0_3072_253" style="mask-type:alpha" maskUnits="userSpaceOnUse" x="0" y="0" width="90" height="91"><circle cx="45" cy="45.9961" r="45" fill="#F7F7FA"/></mask><g mask="url(#mask0_3072_253)"><circle cx="45" cy="45.9961" r="45" fill="#F7F7FA"/><path d="M25 46.4435C25 53.2919 30.0046 57.9454 36.4141 57.9454C42.8235 57.9454 47.8281 53.2919 47.8281 46.4435C47.8281 39.5951 42.8235 34.9417 36.4141 34.9417C30.0046 34.9417 25 39.5951 25 46.4435ZM30.5314 46.4435C30.5314 42.4925 32.902 39.8585 36.4141 39.8585C39.9261 39.8585 42.2967 42.4925 42.2967 46.4435C42.2967 50.3945 39.9261 53.0285 36.4141 53.0285C32.902 53.0285 30.5314 50.3945 30.5314 46.4435Z" fill="#1300F0"/><path d="M56.223 49.367L56.223 49.367L56.2263 49.3675C57.3083 49.5406 58.0533 49.7692 58.5189 50.0705C58.9446 50.3459 59.1284 50.6722 59.1284 51.1411C59.1284 51.5891 58.8989 52.0192 58.3508 52.3606C57.7896 52.7102 56.9066 52.9521 55.6931 52.9521C53.3865 52.9521 50.8958 52.142 49.0595 49.3856C48.663 48.7905 47.8453 48.5504 47.1922 48.9528L44.2732 50.7514L44.5437 51.1904L44.2732 50.7514C43.6495 51.1357 43.4302 51.9818 43.8865 52.6106C46.2645 55.8875 50.3604 58.4613 55.781 58.4613C58.5454 58.4613 60.9679 57.7253 62.7123 56.3907C64.4667 55.0483 65.5157 53.1118 65.5157 50.7899C65.5157 48.4548 64.4871 46.8195 62.8326 45.6887C61.2118 44.581 59.0022 43.9628 56.612 43.5644L53.9798 43.1257C53.9795 43.1257 53.9792 43.1256 53.9788 43.1256C52.9666 42.9532 52.2617 42.7258 51.82 42.4389C51.411 42.1732 51.2482 41.8751 51.2482 41.483C51.2482 41.0567 51.42 40.6997 51.8068 40.4298C52.2151 40.1448 52.8981 39.9354 53.9371 39.9354C55.8217 39.9354 57.9854 40.6254 60.2088 42.9412C60.702 43.4549 61.5352 43.5314 62.0968 43.0358L64.5743 40.8498C65.1352 40.3549 65.1912 39.4713 64.6295 38.9302C62.0887 36.4831 58.5373 34.4262 53.6737 34.4262C51.0838 34.4262 48.8855 35.1191 47.3237 36.3851C45.7521 37.659 44.8609 39.4864 44.8609 41.6586C44.8609 43.8414 45.7393 45.4752 47.3056 46.6529C48.8418 47.808 51.0132 48.506 53.5894 48.9281C53.5897 48.9281 53.5901 48.9282 53.5904 48.9282L56.223 49.367Z" fill="#FFE925" stroke="#1300F0" stroke-width="1.03146" stroke-linejoin="round"/></g></svg>